<?xml version="1.0" encoding="UTF-8" standalone="no"?>
<!-- Created with Inkscape (http://www.inkscape.org/) -->

<svg
   xmlns:dc="http://purl.org/dc/elements/1.1/"
   xmlns:cc="http://creativecommons.org/ns#"
   xmlns:rdf="http://www.w3.org/1999/02/22-rdf-syntax-ns#"
   xmlns:svg="http://www.w3.org/2000/svg"
   xmlns="http://www.w3.org/2000/svg"
   xmlns:xlink="http://www.w3.org/1999/xlink"
   xmlns:sodipodi="http://sodipodi.sourceforge.net/DTD/sodipodi-0.dtd"
   xmlns:inkscape="http://www.inkscape.org/namespaces/inkscape"
   id="svg3004"
   version="1.1"
   width="128"
   height="128"
   xml:space="preserve"
   sodipodi:docname="grooveshark-logo.svg"
   inkscape:version="0.48.4 r9939"><defs
     id="defs3008"><linearGradient
       inkscape:collect="always"
       id="linearGradient3839"><stop
         offset="0"
         id="stop3841"
         style="stop-color:#f67f00;stop-opacity:1" /><stop
         offset="1"
         id="stop3843"
         style="stop-color:#f6b400;stop-opacity:1" /></linearGradient><linearGradient
       inkscape:collect="always"
       xlink:href="#linearGradient3839"
       id="linearGradient3845"
       x1="4"
       y1="12"
       x2="16"
       y2="0"
       gradientUnits="userSpaceOnUse"
       gradientTransform="scale(8,8)" /></defs><sodipodi:namedview
     pagecolor="#ffffff"
     bordercolor="#666666"
     borderopacity="1"
     objecttolerance="10"
     gridtolerance="10"
     guidetolerance="10"
     inkscape:pageopacity="0"
     inkscape:pageshadow="2"
     inkscape:window-width="1920"
     inkscape:window-height="1056"
     id="namedview3006"
     showgrid="false"
     inkscape:snap-global="true"
     inkscape:zoom="2.8284271"
     inkscape:cx="-57.986009"
     inkscape:cy="84.785435"
     inkscape:window-x="0"
     inkscape:window-y="24"
     inkscape:window-maximized="1"
     inkscape:current-layer="svg3004" /><g
     id="g3012"
     inkscape:groupmode="layer"
     inkscape:label="ink_ext_XXXXXX"><rect
       id="rect3026"
       width="128"
       height="128"
       x="0"
       y="0"
       ry="10.21335"
       style="fill:url(#linearGradient3845);fill-opacity:1" /><path
       style="fill:#ffffff;stroke:none"
       d="M 61.521511,109.07507 C 53.658292,108.67357 45.917314,106.12769 39.253545,101.75148 28.83803,94.911472 21.682994,84.071864 19.531812,71.87389 c -0.55308,-3.13621 -0.771256,-6.495914 -0.634536,-9.772216 0.08388,-2.005702 0.108584,-2.298539 0.353096,-4.157601 1.300858,-9.89061 5.97801,-19.194283 13.180933,-26.219146 11.247546,-10.969522 27.076727,-15.300679 42.337547,-11.584345 7.975524,1.942201 15.220756,6.033886 21.131508,11.933819 4.010144,4.002785 7.18207,8.621889 9.42896,13.730821 3.61208,8.213188 4.68915,17.347268 3.09742,26.267682 -1.25842,7.052333 -4.38283,13.995528 -8.887708,19.750488 -1.564624,1.998856 -4.144816,4.707976 -6.07844,6.38228 -2.772656,2.400878 -6.581392,4.897108 -9.877584,6.473838 -5.607031,2.68205 -11.199619,4.09086 -17.484566,4.40441 -2.183488,0.10896 -2.273947,0.10888 -4.576941,-0.008 l 0,0 z M 95.41296,73.71453 c 1.324368,-0.37682 2.324688,-1.306733 3.103872,-2.88537 0.79008,-1.600027 1.147504,-3.463066 1.232272,-6.417669 C 99.905664,58.945802 98.730288,53.447355 96.320496,48.376006 91.406104,38.03389 81.733768,30.641519 70.37017,28.542743 66.846686,27.892017 62.316232,27.797059 58.93454,28.303178 c -4.794014,0.717488 -9.051134,2.214294 -13.084081,4.60044 -9.101465,5.384976 -15.476348,14.666032 -17.154774,24.975256 -0.38384,2.357565 -0.484152,3.879652 -0.43184,6.550853 0.04264,2.196647 0.07152,2.509019 0.30456,3.391268 0.639536,2.416311 1.874799,3.536285 4.274794,3.875692 2.547819,0.360304 5.81398,-1.063187 8.770219,-3.82233 2.88254,-2.690361 4.871432,-6.108151 5.86549,-10.079509 0.784664,-3.134794 0.998992,-5.108962 0.999159,-9.203629 9.9e-5,-3.427365 -0.05576,-4.360908 -0.501976,-8.328979 -0.142752,-1.270106 -0.233024,-2.378282 -0.200688,-2.46259 0.03288,-0.08406 0.173944,-0.15336 0.314616,-0.15336 0.228312,0 3.239396,0.878348 3.768794,1.09939 0.115664,0.04864 0.658112,0.251376 1.205377,0.451488 4.869817,1.779589 9.081391,4.511291 14.328075,9.293422 4.515542,4.115745 8.782207,9.076704 14.077823,16.368649 2.650832,3.650135 4.352896,5.413215 6.71716,6.958043 2.733816,1.786301 5.272824,2.452965 7.225768,1.897247 l 0,0 z"
       id="path3024"
       inkscape:connector-curvature="0" /></g><metadata
     id="metadata3866"><rdf:RDF><cc:Work
         rdf:about=""><dc:title></dc:title></cc:Work></rdf:RDF></metadata></svg>